# xmcd CD database file
#
# Track frame offsets:
#	150
#	15028
#	28819
#	43043
#	54027
#	67495
#	80359
#	91419
#	104017
#	116335
#	128294
#	141766
#
# Disc length: 2076 seconds
#
# Revision: 0
# Processed by: cddbd v1.5.2PL0 Copyright (c) Steve Scherf et al.
# Submitted via: CDex 1.51
#
DISCID=93081a0c
DTITLE=Muddy Waters - Masters of the blues
DYEAR=2006
DGENRE=Blues
TTITLE0=(I'm your) Hoochie coochie man (Live)
TTITLE1=I'm ready
TTITLE2=Rollin' stone
TTITLE3=Standing around crying
TTITLE4=She moves me
TTITLE5=Forty days and forty nights
TTITLE6=I feel so good
TTITLE7=All aboard
TTITLE8=Walkin' thru the park
TTITLE9=Baby, please don't go (Live)
TTITLE10=Rollin' and Tumblin'
TTITLE11=You can't loose what you ain't never had
EXTD=YEAR: 2006
EXTT0=
EXTT1=
EXTT2=
EXTT3=
EXTT4=
EXTT5=
EXTT6=
EXTT7=
EXTT8=
EXTT9=
EXTT10=
EXTT11=
PLAYORDER=
